<svg xmlns="http://www.w3.org/2000/svg" viewBox="0 0 296.77 169.02"><defs><style>.cls-1,.cls-4{fill:#cf003d;}.cls-2{fill:#fff;}.cls-3{fill:none;stroke:#fff;stroke-width:3px;}.cls-3,.cls-4{fill-rule:evenodd;}</style></defs><g id="Laag_2" data-name="Laag 2"><g id="Laag_1-2" data-name="Laag 1"><polygon class="cls-1" points="0 122.1 37.55 169.02 296.77 131.73 296.46 0 27.93 0 0 122.1"/><path class="cls-2" d="M46.43,100.38a31,31,0,0,1-7.7-.91V90.91h3.53c.32,1.77.54,3.37.7,4.76a16.87,16.87,0,0,0,3.74.48c4.38,0,8-1.76,8-6.2,0-8.13-16.47-4.81-16.47-16.42,0-5.93,4.7-10.21,12.78-10.21a36.72,36.72,0,0,1,7,.7V72.3H54.4a46.45,46.45,0,0,1-.64-4.65,16.44,16.44,0,0,0-3-.27c-4.91,0-7.43,2.25-7.43,5.62,0,7.81,16.47,4.92,16.47,16.25C59.8,95.73,54.72,100.38,46.43,100.38Z"/><path class="cls-2" d="M150.8,58.16v23.1c0,6-2.41,9.79-9,9.79a17.28,17.28,0,0,1-4-.43V86.34a12.45,12.45,0,0,0,3.69.59c2.89,0,4.44-1.18,4.44-6V58.16a23.91,23.91,0,0,1-4.65-.75V54.58h13.26v2.89A25.18,25.18,0,0,1,150.8,58.16Z"/><path class="cls-2" d="M72.27,64.1a59.15,59.15,0,0,0-9.47.37v2.84c1.55.1,3.37.32,4.65.53V87.09a24.69,24.69,0,0,0-4.65.75v2.83h9.46Z"/><path class="cls-2" d="M118,54.15l-4.81,1.34V64.1H98.62a10.18,10.18,0,0,0-3.42-.54,9.74,9.74,0,0,0-9.41,6.15l-.06,0a38.48,38.48,0,0,0,.38-5.56,58,58,0,0,0-9.31.37v2.84c1.56.1,3.37.32,4.66.53V87.09a24.8,24.8,0,0,0-4.66.75v2.83h9.52l0-12.78c0-5.88,3.15-10.32,7.59-10.32,3.48,0,4.49,2.2,4.49,5.94v17.1h4.82V72.06a11.54,11.54,0,0,0-.7-4.22h10.7V83.13c0,5.72,1.66,8,7.11,8a25.48,25.48,0,0,0,5.14-.54V86.5a15.61,15.61,0,0,1-3.64.48c-3,0-3.8-1.17-3.8-5.56V67.84h7.44V64.1H118Z"/><path class="cls-2" d="M198.82,63.56a9.74,9.74,0,0,0-9.41,6.15l0,0a39.94,39.94,0,0,0,.37-5.56,57.78,57.78,0,0,0-9.3.37v2.84c1.55.1,3.37.32,4.65.53V87.07h-7.77V72.44c0-5.3-2.19-8.88-9.89-8.88A26.94,26.94,0,0,0,158.33,65v7.32h2.94c.27-1.5.53-3,.64-4.33a18.76,18.76,0,0,1,4.92-.64c4.33,0,5.67,2,5.67,5.72v2c-10.05.06-16,3.64-16,9.47,0,4.22,3,6.57,7.38,6.57a9.48,9.48,0,0,0,9-5.77h.1v5.23l16.82,0,0-12.7c0-5.88,3.16-10.32,7.59-10.32,3.48,0,4.5,2.2,4.5,5.94v17.1h4.81V72.06C206.79,67.36,204.86,63.56,198.82,63.56Z"/><path class="cls-1" d="M172.5,79c0,4.17-2.89,8.45-7.22,8.45-2.46,0-4.06-1.44-4.06-3.69,0-2.62,2.46-5.24,11.28-5.24Z"/><rect class="cls-2" x="38.55" y="42.64" width="33.75" height="3.81"/><path class="cls-3" d="M224.82,16.88c-.29,1.05.51,1,.64,1.65-1.09,0-1.1-1.08-2.28-1,3.78,4.24,4.93,11.94,6,21.07.47,4.1,2.09,8.22,2.48,11.84.43,4.07-1.37,8.43.18,11.48-.84,2.67-.59,4.45-1.41,7.2l3.28,0c1-.08-.84.94.32,1-2.48,2.4-2.07,6.56-3.1,11.11-1.35,6-4.24,11.33-5.13,17-.3,1,.84.68,1,1.32-1.44,4.51-2,9.93-3.47,14.39a2.27,2.27,0,0,1-.64-1c-.4,5-3.62,7.14-4.09,12.08,6,1.14,6-6.72,10.28-8.4C226.08,109.86,232,106,233,100c1.61.09,2.5-.55,4.27-.28,2.95-3.62.84-12.42,4.46-15.36,2.4,4.79,3.74,10.61,6,15.5a9.37,9.37,0,0,1,4.6-.6c3.66,4.31,6.47,9.45,9.33,14.55-1.52,3.35,1.25,3.7,2.53,6.92,1.21,3,.8,7.15,5.17,6.63,2.34-3.41-.93-7.62-1.5-11.17-.63-.15-.59-1-1.63-.68-1.06-2.94-1.84-5.65-2.85-8.57-.91-2.62-2.95-5.39-3.5-7.91-.12-.55.55-.75.34-1.31-1.88-5.11-5.43-9.84-5.69-16.47-2.2-3.69-1.43-10.28-5.43-12.21.11-1.72-1.06-2.2-.93-4,4.43-.75,6.58-5.44,2.4-8.17,0-15,4-30.36,8.73-41.87-1,.08-.93,1.25-2,1.28a3,3,0,0,1-.62-2.3c-1.1-.35-.53,1-.68,1.63-.72-.48-.43-2-.95-2.64-1.12.16-.52,1.58-.36,2.29-1.22-.42-.54-2.7-1.93-3,0,.87-.14,1.87.3,2.3-.4.86-1.1-1.56-2-.35,6.24,6.75-4.06,17.21-5.57,25.18-1.43-5.83-10.59-5.29-9.87,2.17-.58-7.71-9.4-17.09-2.66-23-1.71-.72-2.13.58-3.29,1.27a7.15,7.15,0,0,0,.36-2.95c-1,.19-.66,1.76-1.66,1.95-.77-.55-.48-2.13-1.61-2.32C226.9,19.19,227,18,224.82,16.88Z"/><path class="cls-4" d="M224.82,16.88c-.29,1.05.51,1,.64,1.65-1.09,0-1.1-1.08-2.28-1,3.78,4.24,4.93,11.94,6,21.07.47,4.1,2.09,8.22,2.48,11.84.43,4.07-1.37,8.43.18,11.48-.84,2.67-.59,4.45-1.41,7.2l3.28,0c1-.08-.84.94.32,1-2.48,2.4-2.07,6.56-3.1,11.11-1.35,6-4.24,11.33-5.13,17-.3,1,.84.68,1,1.32-1.44,4.51-2,9.93-3.47,14.39-.3-.24-.38.1-.53-.29-.4,5-3.73,6.44-4.2,11.38,6,1.14,6-6.72,10.28-8.4C226.08,109.86,232,106,233,100c1.61.09,2.5-.55,4.27-.28,2.95-3.62.84-12.42,4.46-15.36,2.4,4.79,3.74,10.61,6,15.5a9.37,9.37,0,0,1,4.6-.6c3.66,4.31,6.47,9.45,9.33,14.55-1.52,3.35,1.25,3.7,2.53,6.92,1.21,3,.8,7.15,5.17,6.63,2.34-3.41-.93-7.62-1.5-11.17-.63-.15-.59-1-1.63-.68-1.06-2.94-1.84-5.65-2.85-8.57-.91-2.62-2.95-5.39-3.5-7.91-.12-.55.55-.75.34-1.31-1.88-5.11-5.43-9.84-5.69-16.47-2.2-3.69-1.43-10.28-5.43-12.21.11-1.72-1.06-2.2-.93-4,4.43-.75,6.58-5.44,2.4-8.17,0-15,4-30.36,8.73-41.87-1,.08-.93,1.25-2,1.28a3,3,0,0,1-.62-2.3c-1.1-.35-.53,1-.68,1.63-.72-.48-.43-2-.95-2.64-1.12.16-.52,1.58-.36,2.29-1.22-.42-.54-2.7-1.93-3,0,.87-.14,1.87.3,2.3-.4.86-1.1-1.56-2-.35,6.24,6.75-4.06,17.21-5.57,25.18-1.43-5.83-10.59-5.29-9.87,2.17-.58-7.71-9.4-17.09-2.66-23-1.71-.72-2.13.58-3.29,1.27a7.15,7.15,0,0,0,.36-2.95c-1,.19-.66,1.76-1.66,1.95-.77-.55-.48-2.13-1.61-2.32C226.9,19.19,227,18,224.82,16.88Z"/><path class="cls-2" d="M66.6,128.65a25.3,25.3,0,0,0,2.56.31L69,130a33.34,33.34,0,0,1-4.63.22l4-21.24c-.69-.13-1.72-.25-2.6-.32l.22-1.06a31.8,31.8,0,0,1,4.66-.22Z"/><path class="cls-2" d="M74.67,123.05a14.59,14.59,0,0,0-.19,2.22c0,2.88,1,3.57,3.72,3.57a11,11,0,0,0,4.29-.91v1.66a13.16,13.16,0,0,1-5,.91c-3.28,0-5-1.29-5-4.88,0-5.7,2.94-11.17,8.35-11.17,2.91,0,4.22,1.5,4.22,3.35C85,120.86,81.74,122.77,74.67,123.05ZM80.52,116c-2.82,0-4.69,2.38-5.51,5.41,5.63-.22,7.92-1.37,7.92-3.37C82.93,116.7,82,116,80.52,116Z"/><path class="cls-2" d="M89.4,123.05a16,16,0,0,0-.19,2.22c0,2.88,1,3.57,3.72,3.57a11,11,0,0,0,4.29-.91v1.66a13.12,13.12,0,0,1-5,.91c-3.28,0-5-1.29-5-4.88,0-5.7,2.94-11.17,8.35-11.17,2.91,0,4.22,1.5,4.22,3.35C99.72,120.86,96.47,122.77,89.4,123.05ZM95.25,116c-2.82,0-4.69,2.38-5.51,5.41,5.63-.22,7.92-1.37,7.92-3.37C97.66,116.7,96.69,116,95.25,116Z"/><path class="cls-2" d="M114.8,109.19a10.13,10.13,0,0,0-2.47-.31c-2.54,0-4,1.44-4.6,4.72l-.19,1.1h4.69l-.31,1.56h-4.69l-2.85,14.92c-1,5.17-3.28,7.14-7,7.14a12.16,12.16,0,0,1-2.65-.29l.5-1.72a9,9,0,0,0,2.47.35c2.53,0,4-1.35,4.72-5.38l2.88-15h-3.5l.34-1.56h3.47l.19-1.06c.78-4.32,3.1-6.39,6.88-6.39a12.39,12.39,0,0,1,2.63.29Z"/><path class="cls-2" d="M122.43,116.26H117.8l-1.69,8.92c-.53,2.78-.15,3.53,1.57,3.53a9.54,9.54,0,0,0,2.31-.25l-.06,1.72a15.45,15.45,0,0,1-2.69.28c-3.1,0-3.82-1.43-3.19-4.84l1.81-9.36h-3l.31-1.56h3l1-5.26,2-.5-1.1,5.76h4.63Z"/><rect class="cls-2" x="125.59" y="74.74" width="12.06" height="3.81"/></g></g></svg>